<?xml version="1.0" standalone="no"?>
<!DOCTYPE svg PUBLIC "-//W3C//DTD SVG 20010904//EN"
 "http://www.w3.org/TR/2001/REC-SVG-20010904/DTD/svg10.dtd">
<svg version="1.0" xmlns="http://www.w3.org/2000/svg"
 width="864.000000pt" height="864.000000pt" viewBox="0 0 864.000000 864.000000"
 preserveAspectRatio="xMidYMid meet">
<metadata>
Created by potrace 1.14, written by Peter Selinger 2001-2017
</metadata>
<g transform="translate(0.000000,864.000000) scale(0.100000,-0.100000)"
fill="#000000" stroke="none">
<path d="M3827 7322 c-28 -19 -59 -64 -114 -162 -32 -58 -42 -75 -120 -210
-27 -47 -52 -92 -56 -100 -4 -8 -18 -33 -31 -55 -14 -22 -31 -51 -39 -65 -11
-21 -64 -115 -207 -365 -10 -16 -30 -52 -47 -80 -16 -27 -32 -57 -36 -65 -4
-8 -15 -28 -26 -45 -19 -32 -48 -81 -89 -155 -14 -25 -68 -119 -120 -210 -52
-91 -108 -190 -125 -220 -17 -30 -45 -79 -64 -108 -18 -29 -33 -55 -33 -57 0
-3 -25 -49 -56 -103 -32 -53 -70 -122 -87 -152 -17 -30 -38 -67 -49 -82 -10
-14 -18 -28 -18 -31 0 -2 -30 -56 -66 -118 -37 -63 -74 -127 -83 -144 -48 -88
-216 -381 -221 -385 -3 -3 -11 -16 -17 -30 -7 -14 -31 -56 -53 -95 -22 -38
-50 -89 -62 -112 -12 -24 -26 -43 -30 -43 -4 0 -8 -5 -8 -11 0 -6 -22 -49 -50
-96 -27 -47 -50 -86 -50 -88 0 -2 -20 -38 -45 -79 -25 -42 -45 -81 -45 -86 0
-6 -4 -10 -10 -10 -5 0 -10 -4 -10 -9 0 -12 -93 -175 -102 -179 -4 -2 -8 -7
-8 -12 0 -4 -25 -52 -56 -106 -31 -55 -69 -121 -85 -149 -15 -27 -75 -133
-133 -234 -58 -102 -106 -188 -106 -193 0 -4 -4 -8 -10 -8 -5 0 -10 -5 -10
-10 0 -6 -88 -163 -195 -350 -107 -187 -197 -350 -199 -364 -4 -22 15 -66 64
-146 5 -8 32 -55 60 -105 28 -49 55 -97 60 -105 8 -14 122 -212 146 -255 64
-115 119 -204 135 -220 19 -20 35 -20 2967 -23 1621 -1 2961 0 2978 3 56 10
51 3 294 425 260 452 245 405 172 533 -32 55 -59 102 -83 145 -12 20 -25 42
-29 47 -4 6 -19 30 -32 55 -14 25 -92 160 -173 300 -82 140 -156 269 -165 285
-9 17 -59 102 -110 190 -51 88 -151 261 -223 385 -71 124 -137 239 -146 255
-9 17 -19 32 -23 33 -5 2 -8 12 -8 23 0 10 -4 19 -8 19 -5 0 -16 15 -25 33 -9
17 -27 50 -40 72 -13 22 -59 101 -102 175 -43 74 -86 149 -96 165 -11 17 -22
37 -26 45 -4 8 -31 55 -60 104 -29 49 -53 90 -53 92 0 1 -52 91 -115 200 -63
108 -115 198 -115 200 0 2 -17 32 -38 66 -21 35 -50 83 -64 108 -14 25 -48 85
-77 133 -28 49 -51 92 -51 97 0 5 -3 10 -8 12 -6 2 -118 193 -169 288 -8 14
-23 39 -33 55 -10 17 -25 41 -33 55 -27 48 -60 106 -132 230 -104 180 -293
507 -323 560 -14 25 -35 61 -47 80 -12 19 -33 55 -47 80 -37 67 -62 109 -97
168 -17 29 -31 57 -31 62 0 6 -4 10 -10 10 -5 0 -10 5 -10 10 0 6 -25 52 -55
102 -30 50 -55 94 -55 97 0 4 -10 15 -22 26 -22 19 -41 20 -483 23 -433 2
-462 1 -488 -16z m675 -256 c-15 -28 -32 -55 -37 -62 -6 -6 -19 -30 -29 -53
-11 -22 -23 -41 -28 -41 -4 0 -8 -5 -8 -10 0 -6 -40 -79 -88 -163 -49 -84 -92
-159 -95 -167 -4 -8 -16 -28 -27 -45 -11 -16 -23 -36 -27 -44 -3 -8 -35 -64
-71 -125 -92 -159 -97 -167 -118 -206 -11 -19 -21 -37 -24 -40 -3 -3 -18 -30
-34 -60 -16 -30 -32 -57 -35 -60 -3 -3 -11 -14 -17 -25 -79 -145 -198 -349
-211 -363 -7 -7 -13 -18 -13 -23 0 -9 -41 -81 -195 -344 -29 -49 -62 -106 -72
-125 -57 -101 -355 -617 -363 -630 -6 -8 -16 -27 -23 -42 -6 -16 -15 -28 -19
-28 -4 0 -8 -4 -8 -9 0 -4 -30 -60 -66 -122 -37 -63 -77 -132 -89 -154 -37
-66 -259 -450 -331 -572 -24 -41 -44 -76 -44 -78 0 -2 -14 -28 -31 -57 -18
-29 -41 -69 -52 -88 -11 -19 -28 -48 -38 -65 -10 -16 -23 -39 -29 -50 -5 -11
-23 -42 -39 -70 -17 -27 -44 -75 -61 -105 -53 -94 -65 -115 -70 -120 -7 -7
-39 -67 -59 -107 -8 -18 -19 -33 -23 -33 -4 0 -8 -5 -8 -10 0 -6 -11 -27 -23
-48 -13 -20 -35 -57 -49 -82 -77 -138 -93 -165 -100 -168 -4 -2 -8 -8 -8 -13
0 -8 -102 -190 -116 -208 -3 -3 -316 -4 -506 -2 l-58 1 40 65 c22 36 40 68 40
70 0 3 21 40 47 82 59 99 101 173 109 196 4 9 10 17 15 17 5 0 9 5 9 11 0 6
22 47 48 92 27 45 51 89 55 97 4 8 16 29 26 45 27 44 159 271 195 336 88 160
120 214 128 217 4 2 8 12 8 23 0 10 5 19 10 19 6 0 10 4 10 9 0 5 23 49 51 98
29 48 63 108 77 133 14 25 43 73 64 108 21 34 34 62 30 62 -4 0 -2 4 4 8 5 4
25 34 44 67 40 73 53 96 119 208 28 49 51 90 51 92 0 2 17 32 38 66 22 35 50
84 64 109 14 25 102 179 196 344 95 164 172 302 172 307 0 5 5 9 10 9 6 0 10
4 10 10 0 8 68 130 111 200 5 8 59 103 120 210 61 107 120 211 132 230 11 19
28 51 39 70 11 19 27 49 37 65 21 35 324 563 353 615 30 54 82 143 95 165 7
11 15 27 19 35 4 8 25 43 46 78 21 34 38 67 38 72 0 6 5 10 12 10 6 0 9 3 5 6
-3 3 5 24 19 46 14 22 33 54 44 72 10 18 24 44 32 57 7 13 16 26 20 29 4 3
135 6 292 6 l285 0 -27 -50z m245 -93 c4 -10 33 -62 65 -116 32 -54 58 -101
58 -103 0 -2 11 -23 26 -45 14 -22 34 -56 45 -75 10 -19 27 -49 38 -67 43 -76
162 -283 171 -297 13 -22 70 -119 97 -167 12 -23 60 -106 106 -185 46 -79 88
-152 95 -163 6 -11 31 -55 56 -97 25 -43 46 -80 46 -82 0 -2 17 -33 38 -67 22
-35 50 -84 64 -109 14 -25 54 -94 90 -155 35 -60 67 -117 71 -125 4 -8 11 -22
17 -30 25 -38 140 -242 140 -250 0 -4 3 -10 8 -12 6 -3 160 -265 171 -293 2
-5 15 -28 29 -49 13 -22 55 -94 93 -160 38 -67 73 -128 79 -136 5 -8 26 -44
46 -80 20 -36 85 -148 144 -250 59 -102 152 -264 207 -360 56 -96 110 -191
121 -210 53 -91 151 -262 182 -315 12 -22 53 -92 90 -155 37 -63 70 -122 74
-130 3 -8 15 -28 26 -45 11 -16 23 -37 27 -45 4 -8 24 -43 45 -78 21 -34 38
-64 38 -66 0 -4 109 -193 130 -226 28 -44 59 -109 52 -112 -4 -2 -70 -112
-146 -246 l-139 -243 -80 138 c-44 76 -89 156 -102 178 -12 22 -49 86 -83 143
-33 56 -58 102 -54 102 4 0 2 4 -4 8 -6 4 -37 54 -70 112 -32 57 -63 112 -69
122 -5 9 -25 43 -44 75 -19 32 -45 78 -59 103 -14 25 -35 61 -47 80 -12 19
-25 42 -28 50 -4 8 -15 29 -26 45 -10 17 -27 46 -38 65 -44 76 -137 236 -150
260 -8 14 -23 40 -34 58 -10 18 -70 122 -133 230 -295 514 -398 691 -445 770
-17 29 -31 57 -31 62 0 4 -3 10 -7 12 -8 3 -44 66 -67 115 -6 13 -14 23 -18
23 -5 0 -8 6 -8 14 0 8 -6 21 -13 28 -7 7 -18 24 -24 38 -7 14 -26 48 -42 75
-16 28 -36 61 -44 75 -26 47 -42 75 -47 80 -3 3 -16 25 -29 50 -13 25 -44 78
-68 117 -23 40 -43 75 -43 78 0 2 -16 29 -35 59 -19 30 -35 58 -35 61 0 3 -22
41 -50 85 -27 44 -46 80 -43 80 3 0 -1 8 -9 18 -8 9 -41 63 -72 120 -32 56
-62 105 -67 108 -5 3 -7 10 -4 15 4 5 1 9 -4 9 -6 0 -11 5 -11 10 0 6 -16 36
-35 66 -19 30 -35 57 -35 60 0 3 -20 39 -45 80 -25 40 -45 77 -45 82 0 22 -69
81 -103 87 -62 12 -90 -9 -149 -110 -82 -139 -87 -147 -110 -192 -12 -24 -26
-43 -30 -43 -4 0 -8 -5 -8 -10 0 -6 -53 -101 -117 -213 -196 -339 -287 -497
-357 -616 -36 -62 -66 -115 -66 -117 0 -3 -12 -23 -26 -45 -14 -23 -37 -62
-51 -87 -15 -26 -35 -60 -45 -77 -10 -16 -21 -37 -25 -45 -3 -8 -21 -39 -40
-68 -18 -29 -33 -54 -33 -56 0 -3 -19 -37 -43 -78 -24 -40 -55 -93 -69 -118
-53 -93 -429 -745 -458 -792 -11 -18 -23 -40 -27 -48 -4 -8 -23 -42 -44 -76
-20 -33 -40 -70 -43 -82 -4 -12 -10 -23 -14 -23 -4 -1 -138 -2 -299 -3 -261
-2 -291 0 -283 14 7 13 31 54 130 225 10 17 48 84 86 150 38 66 72 122 76 123
4 2 8 7 8 12 0 7 68 128 200 355 9 17 118 203 240 415 123 212 233 403 245
425 12 22 36 63 52 91 31 51 60 102 109 189 15 28 30 52 33 55 3 3 11 14 17
25 31 57 80 142 143 250 38 66 99 172 135 235 37 63 77 133 90 155 13 22 85
148 161 280 76 132 141 245 145 250 4 6 19 30 32 55 14 25 48 84 77 132 28 48
51 91 51 97 0 6 4 11 8 11 5 0 14 16 22 35 8 19 17 35 20 35 4 0 17 23 30 50
13 28 27 50 32 50 4 0 8 5 8 11 0 16 163 289 172 289 5 0 12 -8 15 -17z m39
-1530 c63 -112 85 -151 174 -303 40 -68 81 -139 91 -157 11 -18 29 -50 41 -70
12 -21 34 -60 50 -88 16 -27 33 -57 38 -65 11 -18 84 -143 131 -227 12 -21 52
-91 90 -155 38 -64 69 -121 69 -127 0 -6 5 -11 10 -11 6 0 10 -5 10 -10 0 -6
11 -27 23 -48 13 -20 35 -57 49 -82 14 -25 73 -128 133 -230 137 -236 144
-248 167 -290 11 -19 27 -48 37 -65 10 -16 28 -48 41 -70 12 -22 53 -93 91
-157 38 -64 69 -121 69 -127 0 -6 4 -11 9 -11 5 0 12 -9 16 -20 3 -10 30 -59
59 -107 29 -48 78 -133 110 -188 31 -55 61 -107 66 -115 16 -27 187 -324 208
-360 10 -19 33 -59 51 -88 17 -29 31 -57 31 -62 0 -6 4 -10 8 -10 4 0 13 -12
19 -27 7 -16 17 -35 22 -43 18 -26 91 -150 91 -154 0 -3 176 -308 200 -346 27
-44 60 -103 60 -109 0 -8 -5596 -9 -5603 -1 -2 3 -18 30 -35 60 -16 30 -46 84
-66 118 -20 35 -36 68 -36 73 0 5 -3 9 -8 9 -4 0 -13 15 -21 32 -8 18 -22 44
-31 58 -23 34 -80 140 -80 148 0 4 1085 7 2411 7 1585 0 2422 3 2443 10 42 14
76 67 71 109 -4 27 -184 350 -352 631 -13 22 -26 48 -30 58 -3 9 -9 17 -14 17
-5 0 -9 4 -9 10 0 5 -14 33 -31 62 -18 29 -39 67 -49 83 -14 25 -96 166 -135
233 -79 136 -105 183 -105 191 0 5 -4 11 -8 13 -7 3 -82 128 -183 307 -57 101
-171 297 -178 306 -5 6 -22 35 -38 65 -17 30 -70 123 -118 205 -48 83 -96 166
-107 185 -36 63 -118 205 -128 220 -35 57 -70 121 -70 130 0 5 -4 10 -9 10 -5
0 -12 9 -16 19 -3 11 -17 36 -30 55 -13 20 -22 36 -19 36 3 0 -4 12 -15 26
-20 25 -20 27 -3 58 9 17 20 33 25 34 4 2 7 8 7 14 0 5 20 43 45 84 25 40 45
76 45 79 0 3 5 11 10 18 17 20 80 129 80 138 0 5 5 9 10 9 6 0 10 4 10 9 0 14
41 81 49 81 4 0 29 -39 57 -87z m-458 -665 c76 -127 136 -234 135 -240 -1 -3
4 -12 12 -18 8 -7 15 -18 15 -25 0 -8 3 -15 8 -17 4 -1 14 -16 23 -33 8 -16
69 -122 134 -235 65 -113 126 -220 136 -237 11 -18 29 -50 41 -70 11 -21 31
-56 42 -78 12 -22 24 -42 27 -45 3 -3 23 -36 44 -75 20 -38 46 -82 56 -97 11
-14 19 -28 19 -31 0 -5 116 -208 141 -247 5 -8 15 -26 21 -40 7 -14 15 -27 18
-30 6 -6 18 -27 61 -108 17 -31 35 -61 39 -67 20 -26 60 -105 53 -106 -30 -6
-2103 -3 -2103 2 0 4 26 52 58 106 32 54 77 132 100 173 24 41 47 82 52 90 9
14 51 87 90 156 62 108 115 200 120 204 3 3 12 19 21 35 8 17 75 133 147 258
73 126 132 232 132 237 0 5 4 10 8 12 5 2 24 31 43 65 47 84 284 493 286 493
1 0 10 -15 21 -32z m1269 -2200 c54 -95 111 -195 126 -222 16 -28 35 -62 44
-74 8 -13 12 -26 10 -29 -3 -3 -856 -6 -1896 -6 -1560 -2 -1891 0 -1891 11 0
7 19 46 43 85 24 40 57 97 73 127 16 30 31 57 34 60 3 3 32 51 64 108 32 56
64 106 71 110 8 4 736 6 1618 4 l1605 -2 99 -172z"/>
</g>
</svg>
